<svg xmlns="http://www.w3.org/2000/svg" width="1920" height="640" viewBox="0 0 1920 640">
<defs>
  
  <pattern id="grid" x="0" y="0" width="28" height="28" patternUnits="userSpaceOnUse">
    <circle cx="1.2" cy="1.2" r="1.2" fill="#27272A"></circle>
  </pattern>
  <radialGradient id="glow-blue" cx="50%" cy="50%" r="50%"><stop offset="0%" stop-color="#3B82F6" stop-opacity="0.35"></stop><stop offset="60%" stop-color="#3B82F6" stop-opacity="0.08"></stop><stop offset="100%" stop-color="#3B82F6" stop-opacity="0"></stop></radialGradient>
  <radialGradient id="glow-emerald" cx="50%" cy="50%" r="50%"><stop offset="0%" stop-color="#10B981" stop-opacity="0.35"></stop><stop offset="60%" stop-color="#10B981" stop-opacity="0.08"></stop><stop offset="100%" stop-color="#10B981" stop-opacity="0"></stop></radialGradient>
  <radialGradient id="glow-violet" cx="50%" cy="50%" r="50%"><stop offset="0%" stop-color="#7C3AED" stop-opacity="0.4"></stop><stop offset="60%" stop-color="#7C3AED" stop-opacity="0.08"></stop><stop offset="100%" stop-color="#7C3AED" stop-opacity="0"></stop></radialGradient>
  <linearGradient id="tile-blue" x1="0" y1="0" x2="1" y2="1"><stop offset="0%" stop-color="#3B82F6"></stop><stop offset="100%" stop-color="#1D4ED8"></stop></linearGradient>
  <linearGradient id="tile-emerald" x1="0" y1="0" x2="1" y2="1"><stop offset="0%" stop-color="#34D399"></stop><stop offset="100%" stop-color="#059669"></stop></linearGradient>
  <linearGradient id="tile-violet" x1="0" y1="0" x2="1" y2="1"><stop offset="0%" stop-color="#8B5CF6"></stop><stop offset="100%" stop-color="#2563EB"></stop></linearGradient>
</defs>
<rect width="1920" height="640" fill="#0B0F17"></rect>
<rect width="1920" height="640" fill="url(#grid)"></rect>
<circle cx="1400" cy="340" r="520" fill="url(#glow-emerald)" opacity="1"></circle>
<g stroke="#10B981" stroke-width="4" fill="none" stroke-linecap="round" stroke-linejoin="round"><polyline points="880,340 960,340 990,300 1020,380 1050,260 1080,400 1110,340 1200,340"></polyline></g>
<g font-size="22" font-weight="600">
  
  <g transform="translate(230,180)">
    <rect x="-70" y="-22" width="140" height="44" rx="22" fill="#18181B" stroke="#27272A"></rect>
    <text text-anchor="middle" dy="7" fill="#34D399">Nutrition</text>
  </g>
  
  <g transform="translate(1620,160)">
    <rect x="-80" y="-22" width="160" height="44" rx="22" fill="#18181B" stroke="#27272A"></rect>
    <text text-anchor="middle" dy="7" fill="#FDE68A">Movement</text>
  </g>
  
  <g transform="translate(220,520)">
    <rect x="-90" y="-22" width="180" height="44" rx="22" fill="#18181B" stroke="#27272A"></rect>
    <text text-anchor="middle" dy="7" fill="#F87171">Mindfulness</text>
  </g>
</g>
<g opacity="0.9"><path d="M1680 480 l4 -14 l4 14 l14 4 l-14 4 l-4 14 l-4 -14 l-14 -4 z" fill="#6EE7B7"></path><path d="M260 320 l3 -10 l3 10 l10 3 l-10 3 l-3 10 l-3 -10 l-10 -3 z" fill="#6EE7B7" opacity="0.7"></path></g>
<g transform="translate(1280,330) scale(1.6)"><g><rect x="-90" y="-90" width="180" height="180" rx="36" fill="url(#tile-emerald)"></rect><rect x="-90" y="-90" width="180" height="180" rx="36" fill="none" stroke="#fff" stroke-opacity="0.16"></rect><g transform="translate(-6,-10)"><path d="M-40 30 C -40 -20, 0 -50, 44 -44 C 48 0, 18 40, -34 38 Z" fill="#ECFDF5" opacity="0.95"></path><path d="M-34 30 C -10 -6, 18 -30, 42 -42" stroke="#059669" stroke-width="4" fill="none" stroke-linecap="round"></path><path d="M-18 18 L -6 6 M -2 22 L 10 10 M 14 26 L 24 16" stroke="#059669" stroke-width="3" fill="none" stroke-linecap="round" opacity="0.7"></path></g><g transform="translate(42,44)"><circle r="14" fill="#F43F5E"></circle><path d="M-6 -1 L-2 -1 L0 -5 L3 4 L5 -1 L8 -1" stroke="#fff" stroke-width="2" fill="none" stroke-linecap="round" stroke-linejoin="round"></path></g><circle cx="-58" cy="-52" r="5" fill="#FDE68A"></circle><circle cx="56" cy="-54" r="4" fill="#7DD3FC"></circle></g></g>
<g transform="translate(160,260)">
  <text font-weight="800" font-size="220" letter-spacing="-6.6" fill="#FAFAFA">Bites</text>
  <text y="84" font-weight="500" font-size="34" fill="#A1A1AA">Wellness · Fitness · Mind · Food</text>
  <g transform="translate(0,130)">
    <rect x="0" y="0" width="220" height="10" rx="5" fill="#10B981"></rect>
    <rect x="232" y="0" width="60" height="10" rx="5" fill="#2563EB"></rect>
  </g>
</g>
</svg>