<svg xmlns="http://www.w3.org/2000/svg" width="1200" height="1200" viewBox="0 0 1200 1200">
<defs>
  
  <pattern id="grid" x="0" y="0" width="28" height="28" patternUnits="userSpaceOnUse">
    <circle cx="1.2" cy="1.2" r="1.2" fill="#27272A"></circle>
  </pattern>
  <radialGradient id="glow-blue" cx="50%" cy="50%" r="50%">
    <stop offset="0%" stop-color="#3B82F6" stop-opacity="0.35"></stop>
    <stop offset="60%" stop-color="#3B82F6" stop-opacity="0.08"></stop>
    <stop offset="100%" stop-color="#3B82F6" stop-opacity="0"></stop>
  </radialGradient>
  <radialGradient id="glow-emerald" cx="50%" cy="50%" r="50%">
    <stop offset="0%" stop-color="#10B981" stop-opacity="0.35"></stop>
    <stop offset="60%" stop-color="#10B981" stop-opacity="0.08"></stop>
    <stop offset="100%" stop-color="#10B981" stop-opacity="0"></stop>
  </radialGradient>
  <radialGradient id="glow-violet" cx="50%" cy="50%" r="50%">
    <stop offset="0%" stop-color="#7C3AED" stop-opacity="0.4"></stop>
    <stop offset="60%" stop-color="#7C3AED" stop-opacity="0.08"></stop>
    <stop offset="100%" stop-color="#7C3AED" stop-opacity="0"></stop>
  </radialGradient>
  <linearGradient id="tile-blue" x1="0" y1="0" x2="1" y2="1"><stop offset="0%" stop-color="#3B82F6"></stop><stop offset="100%" stop-color="#1D4ED8"></stop></linearGradient>
  <linearGradient id="tile-emerald" x1="0" y1="0" x2="1" y2="1"><stop offset="0%" stop-color="#34D399"></stop><stop offset="100%" stop-color="#059669"></stop></linearGradient>
  <linearGradient id="tile-violet" x1="0" y1="0" x2="1" y2="1"><stop offset="0%" stop-color="#8B5CF6"></stop><stop offset="100%" stop-color="#2563EB"></stop></linearGradient>
</defs><rect width="1200" height="1200" fill="#0B0F17"></rect><rect width="1200" height="1200" fill="url(#grid)"></rect><circle cx="600" cy="420" r="520" fill="url(#glow-emerald)"></circle><g stroke="#10B981" stroke-width="5" fill="none" stroke-linecap="round" stroke-linejoin="round" opacity="0.8"><polyline points="180,720 320,720 360,660 400,780 440,600 480,820 520,720 1020,720"></polyline></g><g transform="translate(600,480) scale(2.8)"><g><rect x="-90" y="-90" width="180" height="180" rx="36" fill="url(#tile-emerald)"></rect><rect x="-90" y="-90" width="180" height="180" rx="36" fill="none" stroke="#fff" stroke-opacity="0.16"></rect><g transform="translate(-6,-10)"><path d="M-40 30 C -40 -20, 0 -50, 44 -44 C 48 0, 18 40, -34 38 Z" fill="#ECFDF5" opacity="0.95"></path><path d="M-34 30 C -10 -6, 18 -30, 42 -42" stroke="#059669" stroke-width="4" fill="none" stroke-linecap="round"></path><path d="M-18 18 L -6 6 M -2 22 L 10 10 M 14 26 L 24 16" stroke="#059669" stroke-width="3" fill="none" stroke-linecap="round" opacity="0.7"></path></g><g transform="translate(42,44)"><circle r="14" fill="#F43F5E"></circle><path d="M-6 -1 L-2 -1 L0 -5 L3 4 L5 -1 L8 -1" stroke="#fff" stroke-width="2" fill="none" stroke-linecap="round" stroke-linejoin="round"></path></g><circle cx="-58" cy="-52" r="5" fill="#FDE68A"></circle><circle cx="56" cy="-54" r="4" fill="#7DD3FC"></circle></g></g><g fill="#34D399" opacity="0.9"><path d="M180 220 l5 -16 l5 16 l16 5 l-16 5 l-5 16 l-5 -16 l-16 -5 z"></path><path d="M1000 260 l4 -14 l4 14 l14 4 l-14 4 l-4 14 l-4 -14 l-14 -4 z"></path><path d="M960 980 l4 -14 l4 14 l14 4 l-14 4 l-4 14 l-4 -14 l-14 -4 z"></path></g><g transform="translate(600,980)" text-anchor="middle"><text font-weight="800" font-size="150" letter-spacing="-4.5" fill="#FAFAFA">Bites</text><text y="70" font-weight="500" font-size="32" fill="#A1A1AA">Wellness · Fitness · Mind · Food</text><text y="135" font-family="monospace" font-size="22" font-weight="600" fill="#34D399" letter-spacing="1.76">PBDESK .</text></g></svg>