<svg xmlns="http://www.w3.org/2000/svg" width="512" height="512" viewBox="0 0 512 512">
<defs>
  
  <pattern id="grid" x="0" y="0" width="28" height="28" patternUnits="userSpaceOnUse">
    <circle cx="1.2" cy="1.2" r="1.2" fill="#27272A"></circle>
  </pattern>
  <radialGradient id="glow-blue" cx="50%" cy="50%" r="50%">
    <stop offset="0%" stop-color="#3B82F6" stop-opacity="0.35"></stop>
    <stop offset="60%" stop-color="#3B82F6" stop-opacity="0.08"></stop>
    <stop offset="100%" stop-color="#3B82F6" stop-opacity="0"></stop>
  </radialGradient>
  <radialGradient id="glow-emerald" cx="50%" cy="50%" r="50%">
    <stop offset="0%" stop-color="#10B981" stop-opacity="0.35"></stop>
    <stop offset="60%" stop-color="#10B981" stop-opacity="0.08"></stop>
    <stop offset="100%" stop-color="#10B981" stop-opacity="0"></stop>
  </radialGradient>
  <radialGradient id="glow-violet" cx="50%" cy="50%" r="50%">
    <stop offset="0%" stop-color="#7C3AED" stop-opacity="0.4"></stop>
    <stop offset="60%" stop-color="#7C3AED" stop-opacity="0.08"></stop>
    <stop offset="100%" stop-color="#7C3AED" stop-opacity="0"></stop>
  </radialGradient>
  <linearGradient id="tile-blue" x1="0" y1="0" x2="1" y2="1"><stop offset="0%" stop-color="#3B82F6"></stop><stop offset="100%" stop-color="#1D4ED8"></stop></linearGradient>
  <linearGradient id="tile-emerald" x1="0" y1="0" x2="1" y2="1"><stop offset="0%" stop-color="#34D399"></stop><stop offset="100%" stop-color="#059669"></stop></linearGradient>
  <linearGradient id="tile-violet" x1="0" y1="0" x2="1" y2="1"><stop offset="0%" stop-color="#8B5CF6"></stop><stop offset="100%" stop-color="#2563EB"></stop></linearGradient>
</defs><clipPath id="clip-av"><circle cx="256" cy="256" r="256"></circle></clipPath><g clip-path="url(#clip-av)"><rect width="512" height="512" fill="#0B0F17"></rect><rect width="512" height="512" fill="url(#grid)"></rect><circle cx="256" cy="256" r="280" fill="url(#glow-emerald)"></circle><g transform="translate(256,256) scale(2.0)"><g><rect x="-90" y="-90" width="180" height="180" rx="36" fill="url(#tile-emerald)"></rect><rect x="-90" y="-90" width="180" height="180" rx="36" fill="none" stroke="#fff" stroke-opacity="0.16"></rect><g transform="translate(-6,-10)"><path d="M-40 30 C -40 -20, 0 -50, 44 -44 C 48 0, 18 40, -34 38 Z" fill="#ECFDF5" opacity="0.95"></path><path d="M-34 30 C -10 -6, 18 -30, 42 -42" stroke="#059669" stroke-width="4" fill="none" stroke-linecap="round"></path><path d="M-18 18 L -6 6 M -2 22 L 10 10 M 14 26 L 24 16" stroke="#059669" stroke-width="3" fill="none" stroke-linecap="round" opacity="0.7"></path></g><g transform="translate(42,44)"><circle r="14" fill="#F43F5E"></circle><path d="M-6 -1 L-2 -1 L0 -5 L3 4 L5 -1 L8 -1" stroke="#fff" stroke-width="2" fill="none" stroke-linecap="round" stroke-linejoin="round"></path></g><circle cx="-58" cy="-52" r="5" fill="#FDE68A"></circle><circle cx="56" cy="-54" r="4" fill="#7DD3FC"></circle></g></g></g><circle cx="256" cy="256" r="254" fill="none" stroke="#10B981" stroke-width="4"></circle></svg>