<svg xmlns="http://www.w3.org/2000/svg" width="512" height="512" viewBox="0 0 512 512">
<defs>
  
  <pattern id="grid" x="0" y="0" width="28" height="28" patternUnits="userSpaceOnUse">
    <circle cx="1.2" cy="1.2" r="1.2" fill="#27272A"></circle>
  </pattern>
  <radialGradient id="glow-blue" cx="50%" cy="50%" r="50%">
    <stop offset="0%" stop-color="#3B82F6" stop-opacity="0.35"></stop>
    <stop offset="60%" stop-color="#3B82F6" stop-opacity="0.08"></stop>
    <stop offset="100%" stop-color="#3B82F6" stop-opacity="0"></stop>
  </radialGradient>
  <radialGradient id="glow-emerald" cx="50%" cy="50%" r="50%">
    <stop offset="0%" stop-color="#10B981" stop-opacity="0.35"></stop>
    <stop offset="60%" stop-color="#10B981" stop-opacity="0.08"></stop>
    <stop offset="100%" stop-color="#10B981" stop-opacity="0"></stop>
  </radialGradient>
  <radialGradient id="glow-violet" cx="50%" cy="50%" r="50%">
    <stop offset="0%" stop-color="#7C3AED" stop-opacity="0.4"></stop>
    <stop offset="60%" stop-color="#7C3AED" stop-opacity="0.08"></stop>
    <stop offset="100%" stop-color="#7C3AED" stop-opacity="0"></stop>
  </radialGradient>
  <linearGradient id="tile-blue" x1="0" y1="0" x2="1" y2="1"><stop offset="0%" stop-color="#3B82F6"></stop><stop offset="100%" stop-color="#1D4ED8"></stop></linearGradient>
  <linearGradient id="tile-emerald" x1="0" y1="0" x2="1" y2="1"><stop offset="0%" stop-color="#34D399"></stop><stop offset="100%" stop-color="#059669"></stop></linearGradient>
  <linearGradient id="tile-violet" x1="0" y1="0" x2="1" y2="1"><stop offset="0%" stop-color="#8B5CF6"></stop><stop offset="100%" stop-color="#2563EB"></stop></linearGradient>
</defs><clipPath id="clip-av"><circle cx="256" cy="256" r="256"></circle></clipPath><g clip-path="url(#clip-av)"><rect width="512" height="512" fill="#0B0F17"></rect><rect width="512" height="512" fill="url(#grid)"></rect><circle cx="256" cy="256" r="280" fill="url(#glow-blue)"></circle><g transform="translate(256,256) scale(2.0)"><g><rect x="-90" y="-90" width="180" height="180" rx="36" fill="url(#tile-blue)"></rect><rect x="-90" y="-90" width="180" height="180" rx="36" fill="none" stroke="#fff" stroke-opacity="0.16"></rect><g opacity="0.18" stroke="#fff" stroke-width="1"><line x1="-90" y1="-30" x2="90" y2="-30"></line><line x1="-90" y1="30" x2="90" y2="30"></line><line x1="-30" y1="-90" x2="-30" y2="90"></line><line x1="30" y1="-90" x2="30" y2="90"></line></g><g fill="none" stroke="#fff" stroke-width="10" stroke-linecap="round" stroke-linejoin="round"><polyline points="-36,-26 -58,0 -36,26"></polyline><polyline points="36,-26 58,0 36,26"></polyline><line x1="14" y1="-30" x2="-14" y2="30"></line></g><g transform="translate(52,-52)" fill="#FDE68A"><path d="M0 -16 L4 -4 L16 0 L4 4 L0 16 L-4 4 L-16 0 L-4 -4 Z"></path></g><g transform="translate(-58,58)" fill="#7DD3FC"><path d="M0 -8 L2 -2 L8 0 L2 2 L0 8 L-2 2 L-8 0 L-2 -2 Z"></path></g></g></g></g><circle cx="256" cy="256" r="254" fill="none" stroke="#2563EB" stroke-width="4"></circle></svg>