<svg xmlns="http://www.w3.org/2000/svg" width="512" height="512" viewBox="0 0 512 512">
<defs>
  
  <pattern id="grid" x="0" y="0" width="28" height="28" patternUnits="userSpaceOnUse">
    <circle cx="1.2" cy="1.2" r="1.2" fill="#27272A"></circle>
  </pattern>
  <radialGradient id="glow-blue" cx="50%" cy="50%" r="50%">
    <stop offset="0%" stop-color="#3B82F6" stop-opacity="0.35"></stop>
    <stop offset="60%" stop-color="#3B82F6" stop-opacity="0.08"></stop>
    <stop offset="100%" stop-color="#3B82F6" stop-opacity="0"></stop>
  </radialGradient>
  <radialGradient id="glow-emerald" cx="50%" cy="50%" r="50%">
    <stop offset="0%" stop-color="#10B981" stop-opacity="0.35"></stop>
    <stop offset="60%" stop-color="#10B981" stop-opacity="0.08"></stop>
    <stop offset="100%" stop-color="#10B981" stop-opacity="0"></stop>
  </radialGradient>
  <radialGradient id="glow-violet" cx="50%" cy="50%" r="50%">
    <stop offset="0%" stop-color="#7C3AED" stop-opacity="0.4"></stop>
    <stop offset="60%" stop-color="#7C3AED" stop-opacity="0.08"></stop>
    <stop offset="100%" stop-color="#7C3AED" stop-opacity="0"></stop>
  </radialGradient>
  <linearGradient id="tile-blue" x1="0" y1="0" x2="1" y2="1"><stop offset="0%" stop-color="#3B82F6"></stop><stop offset="100%" stop-color="#1D4ED8"></stop></linearGradient>
  <linearGradient id="tile-emerald" x1="0" y1="0" x2="1" y2="1"><stop offset="0%" stop-color="#34D399"></stop><stop offset="100%" stop-color="#059669"></stop></linearGradient>
  <linearGradient id="tile-violet" x1="0" y1="0" x2="1" y2="1"><stop offset="0%" stop-color="#8B5CF6"></stop><stop offset="100%" stop-color="#2563EB"></stop></linearGradient>
</defs><clipPath id="clip-av"><circle cx="256" cy="256" r="256"></circle></clipPath><g clip-path="url(#clip-av)"><rect width="512" height="512" fill="#0B0F17"></rect><rect width="512" height="512" fill="url(#grid)"></rect><circle cx="256" cy="256" r="280" fill="url(#glow-violet)"></circle><g transform="translate(256,256) scale(2.0)"><g><rect x="-90" y="-90" width="180" height="180" rx="36" fill="url(#tile-violet)"></rect><rect x="-90" y="-90" width="180" height="180" rx="36" fill="none" stroke="#fff" stroke-opacity="0.16"></rect><g transform="translate(0,6)"><path d="M-60 -30 C -44 -36, -8 -36, 0 -26 L 0 34 C -8 24, -44 24, -60 30 Z" fill="#F5F3FF" stroke="#1E1B4B" stroke-width="2" stroke-linejoin="round"></path><path d="M60 -30 C 44 -36, 8 -36, 0 -26 L 0 34 C 8 24, 44 24, 60 30 Z" fill="#EDE9FE" stroke="#1E1B4B" stroke-width="2" stroke-linejoin="round"></path><g stroke="#7C3AED" stroke-width="2.4" stroke-linecap="round" opacity="0.75"><line x1="-50" y1="-18" x2="-14" y2="-18"></line><line x1="-50" y1="-8" x2="-20" y2="-8"></line><line x1="-50" y1="2" x2="-16" y2="2"></line><line x1="-50" y1="12" x2="-26" y2="12"></line><line x1="14" y1="-18" x2="50" y2="-18"></line><line x1="14" y1="-8" x2="44" y2="-8"></line><line x1="14" y1="2" x2="50" y2="2"></line><line x1="14" y1="12" x2="38" y2="12"></line></g></g><path d="M-72 -60 Q 0 -88, 72 -60" fill="none" stroke="#FDE68A" stroke-width="4" stroke-linecap="round" stroke-dasharray="2 8"></path><g transform="translate(-72,-60)"><circle r="9" fill="#60A5FA"></circle><text y="3" text-anchor="middle" font-family="monospace" font-size="9" font-weight="700" fill="#0B0F17">&lt;/&gt;</text></g><g transform="translate(72,-60)"><circle r="9" fill="#34D399"></circle><path d="M-4 2 C -4 -3, 0 -6, 4 -5 C 5 -1, 2 3, -3 3 Z" fill="#065F46"></path></g></g></g></g><circle cx="256" cy="256" r="254" fill="none" stroke="#7C3AED" stroke-width="4"></circle></svg>