<svg
  height="512"
  viewBox="0 0 512 512"
  width="512"
  xmlns="http://www.w3.org/2000/svg"
>
  <defs>
    <pattern
      height="28"
      id="grid"
      patternUnits="userSpaceOnUse"
      width="28"
      x="0"
      y="0"
    >
      <circle cx="1.2" cy="1.2" fill="#27272A" r="1.2"></circle>
    </pattern>
    <radialGradient cx="50%" cy="50%" id="glow-blue" r="50%">
      <stop offset="0%" stop-color="#3B82F6" stop-opacity="0.35"></stop>
      <stop offset="60%" stop-color="#3B82F6" stop-opacity="0.08"></stop>
      <stop offset="100%" stop-color="#3B82F6" stop-opacity="0"></stop>
    </radialGradient>
    <radialGradient cx="50%" cy="50%" id="glow-emerald" r="50%">
      <stop offset="0%" stop-color="#10B981" stop-opacity="0.35"></stop>
      <stop offset="60%" stop-color="#10B981" stop-opacity="0.08"></stop>
      <stop offset="100%" stop-color="#10B981" stop-opacity="0"></stop>
    </radialGradient>
    <radialGradient cx="50%" cy="50%" id="glow-violet" r="50%">
      <stop offset="0%" stop-color="#7C3AED" stop-opacity="0.4"></stop>
      <stop offset="60%" stop-color="#7C3AED" stop-opacity="0.08"></stop>
      <stop offset="100%" stop-color="#7C3AED" stop-opacity="0"></stop>
    </radialGradient>
    <linearGradient id="tile-blue" x1="0" x2="1" y1="0" y2="1">
      <stop offset="0%" stop-color="#3B82F6"></stop>
      <stop offset="100%" stop-color="#1D4ED8"></stop>
    </linearGradient>
    <linearGradient id="tile-emerald" x1="0" x2="1" y1="0" y2="1">
      <stop offset="0%" stop-color="#34D399"></stop>
      <stop offset="100%" stop-color="#059669"></stop>
    </linearGradient>
    <linearGradient id="tile-violet" x1="0" x2="1" y1="0" y2="1">
      <stop offset="0%" stop-color="#8B5CF6"></stop>
      <stop offset="100%" stop-color="#2563EB"></stop>
    </linearGradient>
  </defs>
  <clipPath id="clip-av"><circle cx="256" cy="256" r="256"></circle></clipPath>
  <g clip-path="url(#clip-av)">
    <circle cx="256" cy="256" fill="url(#glow-violet)" r="280"></circle>
    <g transform="translate(256,256) scale(2.0)">
      <g>
        <rect
          fill="url(#tile-violet)"
          height="180"
          rx="36"
          width="180"
          x="-90"
          y="-90"
        ></rect>
        <rect
          fill="none"
          height="180"
          rx="36"
          stroke="#fff"
          stroke-opacity="0.16"
          width="180"
          x="-90"
          y="-90"
        ></rect>
        <g transform="translate(0,6)">
          <path
            d="M-60 -30 C -44 -36, -8 -36, 0 -26 L 0 34 C -8 24, -44 24, -60 30 Z"
            fill="#F5F3FF"
            stroke="#1E1B4B"
            stroke-linejoin="round"
            stroke-width="2"
          ></path>
          <path
            d="M60 -30 C 44 -36, 8 -36, 0 -26 L 0 34 C 8 24, 44 24, 60 30 Z"
            fill="#EDE9FE"
            stroke="#1E1B4B"
            stroke-linejoin="round"
            stroke-width="2"
          ></path>
          <g
            opacity="0.75"
            stroke="#7C3AED"
            stroke-linecap="round"
            stroke-width="2.4"
          >
            <line x1="-50" x2="-14" y1="-18" y2="-18"></line>
            <line x1="-50" x2="-20" y1="-8" y2="-8"></line>
            <line x1="-50" x2="-16" y1="2" y2="2"></line>
            <line x1="-50" x2="-26" y1="12" y2="12"></line>
            <line x1="14" x2="50" y1="-18" y2="-18"></line>
            <line x1="14" x2="44" y1="-8" y2="-8"></line>
            <line x1="14" x2="50" y1="2" y2="2"></line>
            <line x1="14" x2="38" y1="12" y2="12"></line>
          </g>
        </g>
        <path
          d="M-72 -60 Q 0 -88, 72 -60"
          fill="none"
          stroke="#FDE68A"
          stroke-dasharray="2 8"
          stroke-linecap="round"
          stroke-width="4"
        ></path>
        <g transform="translate(-72,-60)">
          <circle fill="#60A5FA" r="9"></circle>
          <text
            fill="#0B0F17"
            font-family="monospace"
            font-size="9"
            font-weight="700"
            text-anchor="middle"
            y="3"
          >
            &lt;/&gt;
          </text>
        </g>
        <g transform="translate(72,-60)">
          <circle fill="#34D399" r="9"></circle>
          <path
            d="M-4 2 C -4 -3, 0 -6, 4 -5 C 5 -1, 2 3, -3 3 Z"
            fill="#065F46"
          ></path>
        </g>
      </g>
    </g>
  </g>
  <circle
    cx="256"
    cy="256"
    fill="none"
    r="254"
    stroke="#7C3AED"
    stroke-width="4"
  ></circle>
</svg>
