<svg xmlns="http://www.w3.org/2000/svg" width="1920" height="640" viewBox="0 0 1920 640" font-family="Onest, system-ui, -apple-system, Segoe UI, Roboto, sans-serif">
<defs>
  
  <radialGradient id="glow-blue" cx="50%" cy="50%" r="50%"><stop offset="0%" stop-color="#3B82F6" stop-opacity="0.35"></stop><stop offset="60%" stop-color="#3B82F6" stop-opacity="0.08"></stop><stop offset="100%" stop-color="#3B82F6" stop-opacity="0"></stop></radialGradient>
  <radialGradient id="glow-emerald" cx="50%" cy="50%" r="50%"><stop offset="0%" stop-color="#10B981" stop-opacity="0.35"></stop><stop offset="60%" stop-color="#10B981" stop-opacity="0.08"></stop><stop offset="100%" stop-color="#10B981" stop-opacity="0"></stop></radialGradient>
  <radialGradient id="glow-violet" cx="50%" cy="50%" r="50%"><stop offset="0%" stop-color="#7C3AED" stop-opacity="0.4"></stop><stop offset="60%" stop-color="#7C3AED" stop-opacity="0.08"></stop><stop offset="100%" stop-color="#7C3AED" stop-opacity="0"></stop></radialGradient>
  <linearGradient id="tile-blue" x1="0" y1="0" x2="1" y2="1"><stop offset="0%" stop-color="#3B82F6"></stop><stop offset="100%" stop-color="#1D4ED8"></stop></linearGradient>
  <linearGradient id="tile-emerald" x1="0" y1="0" x2="1" y2="1"><stop offset="0%" stop-color="#34D399"></stop><stop offset="100%" stop-color="#059669"></stop></linearGradient>
  <linearGradient id="tile-violet" x1="0" y1="0" x2="1" y2="1"><stop offset="0%" stop-color="#8B5CF6"></stop><stop offset="100%" stop-color="#2563EB"></stop></linearGradient>
</defs>
<rect width="1920" height="640" fill="#0B0F17"></rect>
<circle cx="1400" cy="340" r="520" fill="url(#glow-violet)" opacity="1"></circle>
<path d="M200 480 C 600 240, 1200 240, 1700 460" stroke="#7C3AED" stroke-width="4" fill="none" stroke-linecap="round" stroke-dasharray="2 12" opacity="0.55"></path><g transform="translate(200,480)"><circle r="26" fill="#2563EB"></circle><text class="mono" text-anchor="middle" dy="6" font-size="18" font-weight="700" fill="#fff">&lt;/&gt;</text></g><g transform="translate(1700,460)"><circle r="26" fill="#10B981"></circle><path d="M-10 4 C -10 -6, -2 -14, 8 -10 C 10 -2, 4 8, -6 8 Z" fill="#064E3B"></path></g>
<g font-size="22" font-weight="600">
  
  <g transform="translate(230,180)">
    <rect x="-70" y="-22" width="140" height="44" rx="22" fill="#18181B" stroke="#27272A"></rect>
    <text text-anchor="middle" dy="7" fill="#C4B5FD">Tech</text>
  </g>
  
  <g transform="translate(1620,160)">
    <rect x="-80" y="-22" width="160" height="44" rx="22" fill="#18181B" stroke="#27272A"></rect>
    <text text-anchor="middle" dy="7" fill="#34D399">Wellness</text>
  </g>
  
  <g transform="translate(220,520)">
    <rect x="-90" y="-22" width="180" height="44" rx="22" fill="#18181B" stroke="#27272A"></rect>
    <text text-anchor="middle" dy="7" fill="#FDE68A">Reflections</text>
  </g>
</g>
<g opacity="0.9"><path d="M1680 120 l4 -14 l4 14 l14 4 l-14 4 l-4 14 l-4 -14 l-14 -4 z" fill="#C4B5FD"></path><path d="M260 120 l3 -10 l3 10 l10 3 l-10 3 l-3 10 l-3 -10 l-10 -3 z" fill="#C4B5FD" opacity="0.7"></path></g>
<g transform="translate(1280,330) scale(1.6)"><g><rect x="-90" y="-90" width="180" height="180" rx="36" fill="url(#tile-violet)"></rect><rect x="-90" y="-90" width="180" height="180" rx="36" fill="none" stroke="#fff" stroke-opacity="0.16"></rect><g transform="translate(0,6)"><path d="M-60 -30 C -44 -36, -8 -36, 0 -26 L 0 34 C -8 24, -44 24, -60 30 Z" fill="#F5F3FF" stroke="#1E1B4B" stroke-width="2" stroke-linejoin="round"></path><path d="M60 -30 C 44 -36, 8 -36, 0 -26 L 0 34 C 8 24, 44 24, 60 30 Z" fill="#EDE9FE" stroke="#1E1B4B" stroke-width="2" stroke-linejoin="round"></path><g stroke="#7C3AED" stroke-width="2.4" stroke-linecap="round" opacity="0.75"><line x1="-50" y1="-18" x2="-14" y2="-18"></line><line x1="-50" y1="-8" x2="-20" y2="-8"></line><line x1="-50" y1="2" x2="-16" y2="2"></line><line x1="-50" y1="12" x2="-26" y2="12"></line><line x1="14" y1="-18" x2="50" y2="-18"></line><line x1="14" y1="-8" x2="44" y2="-8"></line><line x1="14" y1="2" x2="50" y2="2"></line><line x1="14" y1="12" x2="38" y2="12"></line></g></g><path d="M-72 -60 Q 0 -88, 72 -60" fill="none" stroke="#FDE68A" stroke-width="4" stroke-linecap="round" stroke-dasharray="2 8"></path><g transform="translate(-72,-60)"><circle r="9" fill="#60A5FA"></circle><text class="mono" y="3" text-anchor="middle" font-size="9" font-weight="700" fill="#0B0F17">&lt;/&gt;</text></g><g transform="translate(72,-60)"><circle r="9" fill="#34D399"></circle><path d="M-4 2 C -4 -3, 0 -6, 4 -5 C 5 -1, 2 3, -3 3 Z" fill="#065F46"></path></g></g></g>
<g transform="translate(160,260)">
  <text font-weight="800" font-size="220" letter-spacing="-6.6" fill="#FAFAFA">Blog</text>
  <text y="84" font-weight="500" font-size="34" fill="#A1A1AA">Reflections · Tech × Wellness</text>
  <g transform="translate(0,130)">
    <rect x="0" y="0" width="220" height="10" rx="5" fill="#7C3AED"></rect>
    <rect x="232" y="0" width="60" height="10" rx="5" fill="#2563EB"></rect>
  </g>
</g>
</svg>